<svg version="1.1" x="0px" y="0px" style="display: none;">
  <symbol id="wave">
    <path d="M420,20c21.5-0.4,38.8-2.5,51.1-4.5c13.4-2.2,26.5-5.2,27.3-5.4C514,6.5,518,4.7,528.5,2.7c7.1-1.3,17.9-2.8,31.5-2.7c0,0,0,0,0,0v20H420z"></path>
    <path d="M420,20c-21.5-0.4-38.8-2.5-51.1-4.5c-13.4-2.2-26.5-5.2-27.3-5.4C326,6.5,322,4.7,311.5,2.7C304.3,1.4,293.6-0.1,280,0c0,0,0,0,0,0v20H420z"></path>
    <path d="M140,20c21.5-0.4,38.8-2.5,51.1-4.5c13.4-2.2,26.5-5.2,27.3-5.4C234,6.5,238,4.7,248.5,2.7c7.1-1.3,17.9-2.8,31.5-2.7c0,0,0,0,0,0v20H140z"></path>
    <path d="M140,20c-21.5-0.4-38.8-2.5-51.1-4.5c-13.4-2.2-26.5-5.2-27.3-5.4C46,6.5,42,4.7,31.5,2.7C24.3,1.4,13.6-0.1,0,0c0,0,0,0,0,0l0,20H140z"></path>
  </symbol>

  <symbol id="pound">
    <ellipse fill="#FFD44B" cx="41" cy="42" rx="41" ry="42" />
    <path d="M40.755 48.28c0 2.15-.303 3.884-.91 5.198-.607 1.315-1.797 2.474-3.57 3.478h21.49l-1.26 8.605h-32.41v-8.175c1.727-.526 2.998-1.147 3.815-1.864.817-.717 1.353-1.578 1.61-2.582.257-1.003.385-2.366.385-4.087V43.26h-4.76v-5.88h4.76v-6.382c0-4.446 1.295-8.043 3.885-10.792 2.59-2.749 6.265-4.123 11.025-4.123 3.173 0 5.915.586 8.225 1.757 2.31 1.171 4.328 2.976 6.055 5.414l-6.79 5.09c-.933-1.385-1.902-2.365-2.905-2.94-1.003-.573-2.158-.86-3.465-.86-3.453 0-5.18 2.175-5.18 6.526v6.31h12.95v5.88h-12.95v5.02z" fill="#FFF" />
  </symbol>

  <symbol id="drop">

    <path d="M16.515 32.865c-.507 3.12-.507 6.656-.405 10.503.1 3.849.305 8.008-.607 10.4-.912 2.392-2.94 3.017-4.663 2.184-1.724-.832-3.141-3.12-3.951-5.304-.812-2.183-1.014-4.264-.913-6.552.101-2.288.506-4.785 1.318-7.072.81-2.288 2.025-4.368 3.242-6.448 1.216-2.08 2.431-4.16 3.85-5.199 1.42-1.04 3.041-1.04 3.346.311.303 1.352-.71 4.057-1.217 7.177zM22.338 7.03C21.188 4.222 20.595 2.11 20 0c-.595 2.11-1.188 4.222-2.338 7.03-1.15 2.806-2.857 6.31-4.936 10.12-2.08 3.808-4.529 7.922-6.422 11.12-1.893 3.2-3.229 5.487-4.193 7.695-.967 2.208-1.56 4.343-1.856 6.55-.298 2.212-.298 4.495-.185 6.286.11 1.791.333 3.087.741 4.533.408 1.447 1.001 3.045 1.968 4.684.964 1.64 2.3 3.314 3.562 4.533 1.261 1.22 2.45 1.981 3.861 2.704 1.41.723 3.043 1.412 4.565 1.867 1.521.457 2.932.686 3.787.792.851.107 1.15.09 1.446.075.296.015.595.032 1.446-.075a23.659 23.659 0 0 0 3.787-.792c1.522-.455 3.154-1.144 4.565-1.867 1.412-.723 2.6-1.485 3.86-2.704a22.488 22.488 0 0 0 3.563-4.533c.967-1.639 1.56-3.237 1.968-4.684.408-1.446.63-2.742.741-4.533.113-1.79.113-4.074-.185-6.285-.296-2.208-.89-4.343-1.856-6.55-.964-2.209-2.3-4.495-4.193-7.695-1.893-3.199-4.342-7.313-6.422-11.122-2.079-3.809-3.786-7.313-4.936-10.12z" fill-rule="evenodd" />
  </symbol>

  <symbol id="sink">

    <path d="M34.817 290v-18.409l-6.702-.084c-9.04-.852-16.115-8.38-16.115-17.55 0-9.167 7.075-16.695 16.115-17.631h13.408V115.94s-8.558-84.497 59.043-91.347C168.166 17.743 279.144-.145 279.179 0c2.516.22 5.595 6.652 7.056 14.919 1.535 8.694.693 16.108-1.881 16.565-.37.065-4.964.577-9.348 1.082v6.083c0 2.17-5.527 3.927-12.346 3.927-6.82 0-12.346-1.76-12.346-3.927V35.45c-50.919 5.992-139.763 16.747-147.887 17.635-12.614 1.38-31.643 12.858-32.382 60.855-.116 13.377 0 122.385 0 122.385h30.52V163.61h7.985v72.719h2.639c7.917 0 14.334 7.894 14.334 17.631 0 9.738-6.417 17.635-14.334 17.635H76.463V290H96c5.523 0 10 4.477 10 10v100c0 11.046 8.954 20 20 20h274c11.046 0 20-8.954 20-20V300c0-5.523 4.477-10 10-10s10 4.477 10 10v130c0 5.523-4.477 10-10 10H10c-5.523 0-10-4.477-10-10V300c0-5.523 4.477-10 10-10h24.817z" fill-rule="evenodd" />

  </symbol>

</svg>